<svg height="56" viewBox="0 0 36 56" width="36" xmlns="http://www.w3.org/2000/svg"><path d="m0 0h36v56h-36z" fill="none"/><path d="m33.9546 16.8198-14.0117-7.8148c-.604-.3368-1.2734-.5051-1.9429-.5051s-1.3389.1683-1.9429.5051l-14.0117 7.8148c-1.2627.7044-2.0454 2.0372-2.0454 3.4832v15.394c0 1.446.7827 2.7788 2.0454 3.4832l14.0117 7.8149c.604.3367 1.2734.5051 1.9429.5051s1.3389-.1684 1.9429-.5051l14.0117-7.8148c1.2627-.7044 2.0454-2.0372 2.0454-3.4832v-15.394c0-1.446-.7827-2.7788-2.0454-3.4832zm-16.9234-6.0682c.2954-.1647.6304-.2518.9688-.2518s.6733.087.9688.2518l12.9961 7.2484h-27.9297l12.9961-7.2484zm-14.0117 26.682c-.6289-.3509-1.0195-1.0163-1.0195-1.7366v-12.8989l6.5903 11.2159 6.3433 10.0645-11.9141-6.645zm14.9805 7.7588-7.7012-12.2188-7.6235-12.9737h30.6494l-7.6235 12.9737zm16-9.4954c0 .7203-.3906 1.3857-1.0195 1.7365l-11.9141 6.645 6.3433-10.0645 6.5903-11.2159z" fill="#664CA6"/></svg>