<svg height="56" viewBox="0 0 46 56" width="46" xmlns="http://www.w3.org/2000/svg"><path d="m0 0h46v56h-46z" fill="none"/><path d="m2.341 32.9612c-.3632 0-.6775-.1289-.9429-.3881-.2654-.2587-.3981-.5769-.3981-.9545 0-.3636.1327-.6783.3981-.944.2654-.2652.5797-.3986.9429-.3986.3911 0 .7194.1334.9848.3986.2654.2657.3981.5804.3981.944 0 .3776-.1327.6958-.3981.9545-.2654.2592-.5937.3881-.9848.3881zm.021-7.2582c-.3771 0-.6949-.1329-.9533-.3986-.2584-.2652-.3876-.5799-.3876-.944 0-.3776.1292-.6993.3876-.965.2584-.2652.5762-.3986.9533-.3986.3632 0 .681.1334.9533.3986.2724.2657.4086.5874.4086.965 0 .3641-.1362.6788-.4086.944-.2724.2657-.5902.3986-.9533.3986zm2.4933 14.1389c-.3771 0-.6984-.1329-.9638-.3986-.2654-.2652-.3981-.5874-.3981-.965 0-.3636.1327-.6743.3981-.9335.2654-.2587.5867-.3881.9638-.3881.3632 0 .6775.1294.9429.3881.2654.2592.3981.5699.3981.9335 0 .3776-.1327.6998-.3981.965-.2654.2657-.5797.3986-.9429.3986zm.021-20.9776c-.3771 0-.6984-.1289-.9638-.3881-.2654-.2587-.3981-.5694-.3981-.9335 0-.3776.1327-.7027.3981-.9755s.5867-.4091.9638-.4091.6984.1364.9638.4091.3981.5979.3981.9755c0 .3641-.1327.6748-.3981.9335-.2654.2592-.5867.3881-.9638.3881zm2.179 10.1322c-.2794 0-.5133-.0909-.7019-.2727-.1886-.1813-.2829-.4056-.2829-.6713 0-.2797.0943-.5065.2829-.6818.1886-.1748.4225-.2622.7019-.2622.2654 0 .4889.0874.6705.2622.1816.1753.2724.4021.2724.6818 0 .2657-.0908.49-.2724.6713-.1816.1818-.4051.2727-.6705.2727zm.9638-5.4542c-.2933 0-.5273-.0974-.7019-.2937-.1746-.1958-.2619-.4196-.2619-.6713 0-.2652.0873-.4895.2619-.6713.1746-.1813.4086-.2727.7019-.2727.2654 0 .4854.0914.66.2727.1746.1818.2619.4061.2619.6713 0 .2517-.0873.4755-.2619.6713-.1746.1963-.3946.2937-.66.2937zm0 8.9994c.2654 0 .4854.0979.66.2937.1746.1963.2619.427.2619.6923 0 .2382-.0873.4545-.2619.6503-.1746.1963-.3946.2937-.66.2937-.2933 0-.5273-.0974-.7019-.2937-.1746-.1958-.2619-.4121-.2619-.6503 0-.2652.0873-.496.2619-.6923.1746-.1958.4086-.2937.7019-.2937zm1.5086 12.8802c-.3771 0-.7019-.1329-.9743-.3986s-.4086-.5804-.4086-.944c0-.3776.1362-.7022.4086-.975s.5971-.4096.9743-.4096c.3632 0 .681.1369.9533.4096s.4086.5974.4086.975c0 .3636-.1362.6783-.4086.944s-.5902.3986-.9533.3986zm0-32.1586c-.3632 0-.681-.1259-.9533-.3776s-.4086-.5664-.4086-.944.1362-.6993.4086-.965c.2724-.2652.5902-.3986.9533-.3986.3771 0 .6984.1334.9638.3986.2654.2657.3981.5874.3981.965s-.1327.6923-.3981.944-.5867.3776-.9638.3776zm1.2362 5.4542c-.2514 0-.4749-.0909-.6705-.2727-.1956-.1813-.2933-.4056-.2933-.6713 0-.2797.0978-.5105.2933-.6923.1956-.1813.419-.2727.6705-.2727.2794 0 .5098.0914.6914.2727.1816.1818.2724.4126.2724.6923 0 .2657-.0908.49-.2724.6713-.1816.1818-.4121.2727-.6914.2727zm0 18.6491c.2794 0 .5098.0914.6914.2727.1816.1818.2724.4061.2724.6713 0 .2802-.0908.507-.2724.6818-.1816.1753-.4121.2622-.6914.2622-.2514 0-.4749-.0869-.6705-.2622-.1956-.1748-.2933-.4016-.2933-.6818 0-.2652.0978-.4895.2933-.6713.1956-.1813.419-.2727.6705-.2727zm4.2324-22.2153c-.2654 0-.4924-.0944-.681-.2832s-.2829-.4161-.2829-.6818c0-.2517.0943-.4685.2829-.6503.1886-.1813.4156-.2727.681-.2727s.4889.0914.6705.2727c.1816.1818.2724.3986.2724.6503 0 .2657-.0908.493-.2724.6818s-.4051.2832-.6705.2832zm0 25.7814c.2654 0 .4889.0914.6705.2727.1816.1818.2724.4061.2724.6713 0 .2657-.0908.493-.2724.6818-.1816.1893-.4051.2832-.6705.2832s-.4924-.0939-.681-.2832c-.1886-.1888-.2829-.4161-.2829-.6818 0-.2652.0943-.4895.2829-.6713.1886-.1813.4156-.2727.681-.2727zm.8381-31.3195c-.3632 0-.681-.1259-.9533-.3776s-.4086-.5664-.4086-.944.1362-.6993.4086-.965c.2724-.2652.5902-.3986.9533-.3986s.681.1334.9533.3986c.2724.2657.4086.5874.4086.965s-.1362.6923-.4086.944-.5902.3776-.9533.3776zm0 39.4379c-.3632 0-.681-.1329-.9533-.3986-.2724-.2657-.4086-.5804-.4086-.944s.1362-.6783.4086-.944.5902-.3986.9533-.3986.681.1329.9533.3986.4086.5804.4086.944-.1362.6783-.4086.944-.5902.3986-.9533.3986zm4.379-35.7878c-.2794 0-.5063-.0974-.681-.2937-.1746-.1958-.2619-.4196-.2619-.6713s.0873-.475.2619-.6713c.1746-.1958.4016-.2937.681-.2937.2654 0 .4889.0979.6705.2937.1816.1963.2724.4196.2724.6713s-.0908.4755-.2724.6713c-.1816.1963-.4051.2937-.6705.2937zm0 29.5364c.2654 0 .4889.1019.6705.3047s.2724.4295.2724.6813-.0908.4725-.2724.6613-.4051.2827-.6705.2827c-.2794 0-.5063-.0939-.681-.2827s-.2619-.4096-.2619-.6613.0873-.4785.2619-.6813.4016-.3047.681-.3047zm2.7867-34.4452c-.3632 0-.681-.1289-.9533-.3881-.2724-.2587-.4086-.5769-.4086-.9545 0-.3636.1362-.6783.4086-.944.2724-.2652.5902-.3986.9533-.3986s.681.1334.9533.3986c.2724.2657.4086.5804.4086.944 0 .3776-.1362.6958-.4086.9545-.2724.2592-.5902.3881-.9533.3881zm0 41.9761c-.3632 0-.681-.1329-.9533-.3986-.2724-.2657-.4086-.5874-.4086-.965 0-.3636.1362-.6783.4086-.944s.5902-.3986.9533-.3986.681.1329.9533.3986.4086.5804.4086.944c0 .3776-.1362.6993-.4086.965s-.5902.3986-.9533.3986zm2.7657-37.0674c-.2654 0-.4924-.1014-.681-.3042-.1886-.2023-.2829-.43-.2829-.6818s.0943-.472.2829-.6608.4156-.2832.681-.2832.4889.0944.6705.2832.2724.4091.2724.6608-.0908.4795-.2724.6818c-.1816.2028-.4051.3042-.6705.3042zm0 29.5574c.2654 0 .4889.0979.6705.2937s.2724.4265.2724.6923c0 .2517-.0908.4685-.2724.6503s-.4051.2727-.6705.2727-.4924-.0909-.681-.2727-.2829-.3986-.2829-.6503c0-.2657.0943-.4965.2829-.6923s.4156-.2937.681-.2937zm4.421-33.2075c-.3771 0-.7019-.1259-.9743-.3776s-.4086-.5664-.4086-.944.1362-.6993.4086-.965c.2724-.2652.5971-.3986.9743-.3986.3492 0 .6635.1334.9429.3986.2794.2657.419.5874.419.965s-.1397.6923-.419.944-.5937.3776-.9429.3776zm0 39.4379c-.3771 0-.7019-.1329-.9743-.3986s-.4086-.5804-.4086-.944.1362-.6783.4086-.944.5971-.3986.9743-.3986c.3492 0 .6635.1329.9429.3986s.419.5804.419.944-.1397.6783-.419.944c-.2794.2657-.5937.3986-.9429.3986zm.7962-33.9207c-.2794 0-.5063-.0909-.681-.2727-.1746-.1813-.2619-.4056-.2619-.6713 0-.2652.0873-.4855.2619-.6608.1746-.1748.4016-.2622.681-.2622.2514 0 .4749.0874.6705.2622.1956.1753.2933.3956.2933.6608 0 .2657-.0978.49-.2933.6713-.1956.1818-.419.2727-.6705.2727zm0 25.8024c.2514 0 .4749.0944.6705.2832s.2933.4166.2933.6818c0 .2517-.0978.472-.2933.6608-.1956.1893-.419.2832-.6705.2832-.2794 0-.5063-.0939-.681-.2832-.1746-.1888-.2619-.4091-.2619-.6608 0-.2652.0873-.493.2619-.6818s.4016-.2832.681-.2832zm4.2324-22.2153c-.2654 0-.4959-.0909-.6914-.2727-.1956-.1813-.2933-.4056-.2933-.6713 0-.2797.0978-.5105.2933-.6923.1956-.1813.426-.2727.6914-.2727.2514 0 .4714.0914.66.2727.1886.1818.2829.4126.2829.6923 0 .2657-.0943.49-.2829.6713-.1886.1818-.4086.2727-.66.2727zm0 18.6491c.2514 0 .4714.0914.66.2727.1886.1818.2829.4061.2829.6713 0 .2802-.0943.507-.2829.6818-.1886.1753-.4086.2622-.66.2622-.2654 0-.4959-.0869-.6914-.2622-.1956-.1748-.2933-.4016-.2933-.6818 0-.2652.0978-.4895.2933-.6713.1956-.1813.426-.2727.6914-.2727zm1.2571-24.1032c-.3632 0-.681-.1259-.9533-.3776s-.4086-.5664-.4086-.944.1362-.6993.4086-.965c.2724-.2652.5902-.3986.9533-.3986s.681.1334.9533.3986c.2724.2657.4086.5874.4086.965s-.1362.6923-.4086.944-.5902.3776-.9533.3776zm.021 32.1586c-.3771 0-.7019-.1329-.9743-.3986s-.4086-.5804-.4086-.944c0-.3776.1362-.7022.4086-.975s.5971-.4096.9743-.4096c.3632 0 .681.1369.9533.4096s.4086.5974.4086.975c0 .3636-.1362.6783-.4086.944s-.5902.3986-.9533.3986zm1.4876-21.8796c-.2654 0-.4889-.0974-.6705-.2937-.1816-.1958-.2724-.4196-.2724-.6713 0-.2652.0908-.4895.2724-.6713.1816-.1813.4051-.2727.6705-.2727.2933 0 .5273.0914.7019.2727.1746.1818.2619.4061.2619.6713 0 .2517-.0873.4755-.2619.6713-.1746.1963-.4086.2937-.7019.2937zm0 8.9994c.2933 0 .5273.0979.7019.2937.1746.1963.2619.427.2619.6923 0 .2382-.0873.4545-.2619.6503-.1746.1963-.4086.2937-.7019.2937-.2654 0-.4889-.0974-.6705-.2937-.1816-.1958-.2724-.4121-.2724-.6503 0-.2652.0908-.496.2724-.6923.1816-.1958.4051-.2937.6705-.2937zm.9638-3.5452c-.2654 0-.4889-.0909-.6705-.2727-.1816-.1813-.2724-.4056-.2724-.6713 0-.2797.0908-.5065.2724-.6818.1816-.1748.4051-.2622.6705-.2622.2933 0 .5273.0874.7019.2622.1746.1753.2619.4021.2619.6818 0 .2657-.0873.49-.2619.6713-.1746.1818-.4086.2727-.7019.2727zm2.2-10.1322c-.3632 0-.681-.1289-.9533-.3881-.2724-.2587-.4086-.5694-.4086-.9335 0-.3776.1362-.7027.4086-.9755s.5902-.4091.9533-.4091.681.1364.9533.4091.4086.5979.4086.9755c0 .3641-.1362.6748-.4086.9335-.2724.2592-.5902.3881-.9533.3881zm0 20.9776c-.3632 0-.6775-.1329-.9429-.3986-.2654-.2652-.3981-.5874-.3981-.965 0-.3636.1327-.6743.3981-.9335.2654-.2587.5797-.3881.9429-.3881.3911 0 .7194.1294.9848.3881.2654.2592.3981.5699.3981.9335 0 .3776-.1327.6998-.3981.965-.2654.2657-.5937.3986-.9848.3986zm2.4933-14.1389c-.3632 0-.681-.1329-.9533-.3986-.2724-.2652-.4086-.5799-.4086-.944 0-.3776.1362-.6993.4086-.965.2724-.2652.5902-.3986.9533-.3986.3771 0 .6984.1334.9638.3986.2654.2657.3981.5874.3981.965 0 .3641-.1327.6788-.3981.944-.2654.2657-.5867.3986-.9638.3986zm.021 7.2582c-.3771 0-.7019-.1289-.9743-.3881-.2724-.2587-.4086-.5769-.4086-.9545 0-.3636.1362-.6783.4086-.944.2724-.2652.5971-.3986.9743-.3986.3632 0 .6775.1334.9429.3986.2654.2657.3981.5804.3981.944 0 .3776-.1327.6958-.3981.9545-.2654.2592-.5797.3881-.9429.3881zm-20.693-10.3279c0-.0511-.017-.17-.017-.2896.0403-.7875.3459-1.5381.867-2.1298.577-.6856 1.4023-1.1145 2.295-1.1927.0151.1015.0208.2041.017.3066-.019.8032-.3062 1.577-.816 2.198-.5237.651-1.2923 1.0577-2.125 1.1246-.085 0-.153-.0171-.221-.0171zm4.318 4.7366c.0117-1.2172.6387-2.3458 1.666-2.9987-.7026-1.007-1.8667-1.5904-3.094-1.5505-1.173 0-2.125.7156-2.754.7156-.646 0-1.496-.6815-2.55-.6815-1.938 0-3.927 1.6191-3.927 4.6685.0395 1.852.6056 3.6546 1.632 5.1967.782 1.1074 1.462 1.9935 2.448 1.9935.969 0 1.394-.6475 2.584-.6475 1.241 0 1.496.6305 2.567.6305 1.0541 0 1.785-.9713 2.448-1.9254.4812-.6777.8434-1.4326 1.071-2.2321-1.2726-.5377-2.0973-1.7877-2.091-3.1691z" fill="#06c"/></svg>