<svg height="56" viewBox="0 0 32 56" width="32" xmlns="http://www.w3.org/2000/svg"><path d="m0 0h32v56h-32z" fill="none" transform="matrix(-1 0 -0 -1 32 56)"/><path d="m12.374 27.8486h-4.0345c-1.1082 0-1.8395-.6333-1.8395-1.6573 0-.9807.7439-1.6264 1.8395-1.6264h4.3315l2.5958-2.8327c.0027.0499.0005.0984.0042.1486l.3056 4.2136-.992.9568c-.6276.6082-1.1151.7973-2.2106.7973zm6.6122-12.2969c.1477 0 .2876-.0275.431-.0432.0341-.0038.0686-.0057.1025-.0103.1931-.0262.3794-.0663.5624-.1193.0585-.0169.1166-.0341.1739-.0536 1.5479-.5275 2.6645-1.9735 2.6645-3.7079 0-2.1773-1.757-3.9343-3.9343-3.9343-2.1886 0-3.9343 1.757-3.9343 3.9343 0 2.1829 1.7457 3.9343 3.9343 3.9343zm11.9545 29.7108-5.315-6.2861-1.0748-4.1943-2.9938 3.7565.5945 1.2896c.3613.7715.5786 1.1165 1.0543 1.6856l5.1867 6.1624c.3785.4493.8571.6408 1.3247.6408 1.3083 0 2.5298-1.5003 1.2233-3.0544zm-6.1648-16.5593-.3145-4.1059c-.0157-.1696.041-.3038.1272-.413.1234-.1562.3181-.2524.5405-.2524.2049 0 .4244.0745.6077.2385l.9183.8212.4765.426.4113 4.8996c.0975 1.0697.605 1.6388 1.5164 1.6388.0555 0 .1125-.0021.171-.0063.9829-.0189 1.5544-.772 1.4764-1.85l-.3227-4.4138c-.0886-1.2495-.4498-1.9474-1.3185-2.8121l-2.7758-2.7267-.096-.0943c-.7427-.7228-1.4003-1.3093-2.0496-1.7594-.9371-.6495-1.8568-1.0066-2.9883-1.0066-.5861 0-1.1168.1086-1.5916.2968-.5517.2187-1.022.5513-1.3901.9855-.6627.7816-1.0029 1.8751-.9084 3.1669l.3925 5.412c.1223 1.8712.4374 3.0272 1.0361 4.9665l.1667.5573-.0035.0049-1.3315 1.8946-1.1149 1.5863c-.3842.532-.7807 1.1395-1.0551 1.6921l-3.8275 7.7307c-.7811 1.5717.3237 2.7064 1.5033 2.7064.0151 0 .0302-.0058.0454-.0062.6314-.0157 1.2777-.3527 1.6617-1.1288l3.9244-7.9226c.1483-.3172.199-.4923.5621-.9713.0089-.0118.0131-.019.0224-.0311l1.3719-1.7214 2.4047-3.0173c1.4326-1.7914 1.9178-2.73 1.7512-4.785zm-23.776-20.7032c-.5523 0-1 .4473-1 1v38c0 .5527.4478 1 1 1s1-.4473 1-1v-38c0-.5527-.4478-1-1-1z" fill="#06c"/></svg>