<?xml version="1.0" encoding="utf-8"?>
<!-- Generator: Adobe Illustrator 26.5.0, SVG Export Plug-In . SVG Version: 6.00 Build 0)  -->
<svg version="1.1" id="Artwork" xmlns="http://www.w3.org/2000/svg" xmlns:xlink="http://www.w3.org/1999/xlink" x="0px" y="0px"
	 width="73px" height="80.639px" viewBox="0 0 73 80.639" style="enable-background:new 0 0 73 80.639;" xml:space="preserve">
<style type="text/css">
	.st0{fill:#0061EB;}
</style>
<g>
	<path class="st0" d="M62.716,39.821c1.282-1.227,2.449-2.447,3.483-3.649c6.97-8.1,6.405-13.314,4.703-16.261
		c-1.702-2.948-5.934-6.044-16.434-4.058c-1.558,0.295-3.198,0.695-4.902,1.192c-0.422-1.724-0.895-3.344-1.419-4.841
		c-0.061-0.175-0.123-0.346-0.185-0.516c0.97-0.856,1.583-2.108,1.583-3.504c0-2.58-2.092-4.672-4.672-4.672
		c-0.443,0-0.872,0.063-1.278,0.178C41.086,0.788,38.492,0,36.416,0c-3.404,0-8.202,2.117-11.731,12.204
		c-0.524,1.497-0.997,3.117-1.419,4.841c-1.704-0.497-3.344-0.897-4.902-1.192c-10.5-1.986-14.732,1.11-16.434,4.058
		c-1.702,2.948-2.267,8.162,4.703,16.261c1.034,1.202,2.201,2.422,3.483,3.649c-1.282,1.227-2.449,2.447-3.483,3.649
		c-0.168,0.195-0.33,0.388-0.489,0.58c-0.463-0.153-0.957-0.238-1.471-0.238C2.092,43.812,0,45.904,0,48.484
		c0,1.338,0.563,2.544,1.465,3.396c-1.163,3.516-0.553,6.089,0.465,7.852c1.327,2.298,4.192,4.687,10.365,4.687
		c1.745,0,3.755-0.191,6.069-0.629c1.558-0.295,3.198-0.695,4.902-1.192c0.422,1.724,0.895,3.344,1.419,4.841
		c3.529,10.086,8.328,12.204,11.731,12.204c3.404,0,8.202-2.117,11.731-12.204c0.524-1.497,0.997-3.117,1.419-4.841
		c1.704,0.497,3.344,0.897,4.902,1.192c0.251,0.048,0.499,0.092,0.743,0.134c0.437,2.127,2.32,3.727,4.577,3.727
		c2.208,0,4.056-1.531,4.545-3.589c3.628-0.75,5.552-2.566,6.57-4.329c1.702-2.948,2.267-8.162-4.703-16.261
		C65.165,42.268,63.998,41.048,62.716,39.821z M55.001,18.67c3.511-0.664,6.467-0.755,8.787-0.269
		c2.213,0.464,3.771,1.454,4.631,2.943c0.86,1.489,0.938,3.333,0.233,5.482c-0.739,2.251-2.295,4.766-4.626,7.475
		c-1.013,1.177-2.16,2.374-3.427,3.579c-2.622-2.305-5.628-4.617-8.931-6.865c-0.296-3.985-0.795-7.744-1.48-11.167
		C51.865,19.354,53.475,18.959,55.001,18.67z M42.767,50.821c-2.134,1.232-4.258,2.373-6.351,3.416
		c-2.093-1.044-4.217-2.185-6.351-3.416c-2.134-1.232-4.184-2.501-6.134-3.792c-0.143-2.335-0.217-4.745-0.217-7.209
		c0-2.464,0.074-4.874,0.217-7.208c1.951-1.291,4.001-2.56,6.134-3.792c2.134-1.232,4.258-2.373,6.351-3.416
		c2.093,1.044,4.217,2.185,6.351,3.416c2.134,1.232,4.184,2.501,6.134,3.792c0.143,2.335,0.217,4.745,0.217,7.208
		c0,2.464-0.074,4.874-0.217,7.209C46.951,48.32,44.901,49.589,42.767,50.821z M48.62,50.629c-0.28,2.929-0.676,5.708-1.18,8.287
		c-2.485-0.853-5.09-1.899-7.766-3.121c1.501-0.784,3.013-1.614,4.527-2.489C45.716,52.43,47.19,51.536,48.62,50.629z
		 M33.158,55.794c-2.677,1.222-5.281,2.269-7.766,3.121c-0.504-2.579-0.9-5.358-1.18-8.287c1.43,0.908,2.904,1.802,4.419,2.676
		C30.146,54.18,31.657,55.01,33.158,55.794z M20.954,44.986c-2.396-1.707-4.605-3.439-6.586-5.165
		c1.981-1.726,4.19-3.458,6.586-5.165c-0.071,1.692-0.108,3.416-0.108,5.165S20.883,43.294,20.954,44.986z M24.211,29.013
		c0.28-2.929,0.676-5.708,1.18-8.287c2.485,0.853,5.09,1.899,7.766,3.121c-1.501,0.784-3.013,1.614-4.527,2.489
		C27.116,27.211,25.641,28.105,24.211,29.013z M39.674,23.848c2.676-1.222,5.281-2.269,7.766-3.121
		c0.504,2.579,0.9,5.358,1.18,8.286c-1.43-0.908-2.904-1.802-4.419-2.676C42.686,25.462,41.175,24.632,39.674,23.848z
		 M51.878,34.655c2.396,1.707,4.605,3.439,6.586,5.165c-1.981,1.726-4.19,3.458-6.586,5.165c0.071-1.692,0.108-3.416,0.108-5.165
		S51.949,36.348,51.878,34.655z M27.391,13.151c1.18-3.373,2.58-5.979,4.161-7.744c1.508-1.685,3.145-2.539,4.864-2.539
		c1.685,0,3.291,0.822,4.775,2.442c-0.62,0.793-0.99,1.79-0.99,2.874c0,2.58,2.092,4.672,4.672,4.672
		c0.153,0,0.305-0.008,0.455-0.022c0.038,0.105,0.075,0.211,0.112,0.317c0.513,1.466,0.976,3.058,1.386,4.757
		c-3.307,1.118-6.812,2.565-10.411,4.302c-3.599-1.736-7.104-3.183-10.411-4.302C26.416,16.208,26.879,14.616,27.391,13.151z
		 M8.807,34.301c-2.331-2.709-3.887-5.224-4.626-7.475c-0.705-2.149-0.627-3.993,0.233-5.482c0.86-1.489,2.418-2.479,4.631-2.943
		c0.978-0.205,2.07-0.308,3.27-0.308c1.643,0,3.487,0.192,5.517,0.576c1.526,0.289,3.136,0.684,4.813,1.178
		c-0.685,3.423-1.184,7.182-1.48,11.167c-3.303,2.249-6.309,4.56-8.931,6.865C10.967,36.675,9.819,35.478,8.807,34.301z
		 M17.831,60.971c-3.511,0.664-6.468,0.755-8.787,0.269c-2.213-0.464-3.771-1.454-4.631-2.943c-0.819-1.418-0.927-3.16-0.326-5.179
		c0.192,0.024,0.387,0.038,0.585,0.038c2.58,0,4.672-2.092,4.672-4.672c0-1.022-0.329-1.966-0.885-2.735
		c0.114-0.136,0.229-0.272,0.347-0.409c1.013-1.177,2.16-2.374,3.427-3.579c2.622,2.305,5.628,4.617,8.931,6.865
		c0.296,3.985,0.795,7.744,1.48,11.167C20.967,60.287,19.357,60.683,17.831,60.971z M45.44,66.491
		c-1.18,3.373-2.58,5.979-4.16,7.744c-1.508,1.685-3.145,2.539-4.864,2.539c-1.719,0-3.356-0.854-4.864-2.539
		c-1.58-1.765-2.98-4.371-4.161-7.744c-0.513-1.466-0.976-3.058-1.386-4.757c3.307-1.118,6.812-2.565,10.411-4.302
		c3.599,1.736,7.104,3.183,10.411,4.302C46.416,63.433,45.953,65.025,45.44,66.491z M68.418,58.297
		c-0.819,1.418-2.273,2.383-4.322,2.872c-0.707-1.682-2.37-2.864-4.309-2.864c-1.899,0-3.532,1.134-4.263,2.76
		c-0.173-0.03-0.347-0.061-0.523-0.095c-1.526-0.289-3.136-0.684-4.813-1.178c0.685-3.423,1.184-7.182,1.48-11.167
		c3.303-2.249,6.309-4.56,8.931-6.865c1.267,1.206,2.414,2.402,3.427,3.579c2.331,2.709,3.887,5.224,4.626,7.475
		C69.356,54.964,69.278,56.809,68.418,58.297z"/>
</g>
</svg>
