<?xml version="1.0" encoding="UTF-8"?>
<svg id="Layer_1" data-name="Layer 1" xmlns="http://www.w3.org/2000/svg" version="1.1" viewBox="0 0 120 120">
  <defs>
    <style>
      .cls-1 {
        fill: #000;
        stroke-width: 0px;
      }
    </style>
  </defs>
  <path class="cls-1" d="M54,95.1c-.5,0-.9,0-1.3,0s-.9,0-1.3,0l-2,3.8c-.2.4-.5.8-.9,1s-.9.3-1.4.2-.9-.3-1.2-.7-.5-.8-.6-1.3l-.7-4.2c-.8-.2-1.7-.5-2.5-.8s-1.6-.6-2.4-1l-3.1,2.8c-.4.3-.8.5-1.2.6s-1,0-1.4-.3c-.4-.2-.7-.6-.9-1s-.2-.9-.1-1.4l.8-4.1c-.7-.5-1.4-1-2-1.6s-1.3-1.1-1.9-1.7l-3.8,1.6c-.5.2-1,.3-1.4.1s-.9-.4-1.2-.8c-.3-.4-.5-.8-.5-1.2s0-.9.3-1.4l2.2-3.6c-.5-.7-.9-1.4-1.3-2.2s-.8-1.5-1.2-2.3h-4.2c-.5.2-.9,0-1.3-.2s-.7-.6-.8-1.1c-.2-.5-.2-.9,0-1.4s.4-.8.8-1.1l3.3-2.6c-.2-.8-.4-1.7-.5-2.6s-.2-1.7-.3-2.7l-4-1.3c-.5-.1-.9-.4-1.2-.8s-.4-.8-.4-1.3.1-1,.4-1.3.7-.6,1.2-.8l4-1.3c0-.9.1-1.8.3-2.7s.3-1.7.5-2.6l-3.3-2.6c-.4-.3-.6-.7-.8-1.1s-.1-.9,0-1.3c.1-.5.4-.9.8-1.1s.9-.4,1.3-.3h4.2c.4-.7.8-1.5,1.2-2.2s.9-1.5,1.4-2.2l-2.2-3.6c-.2-.4-.4-.8-.3-1.3s.2-.9.5-1.2c.4-.4.8-.7,1.2-.8s.9,0,1.4.1l3.9,1.5c.6-.6,1.2-1.1,1.9-1.7s1.4-1.1,2-1.6l-.8-4.1c0-.5,0-1,.1-1.4s.5-.8.9-1c.5-.3,1-.4,1.4-.3s.9.3,1.3.6l3.1,2.7c.8-.3,1.6-.6,2.4-.9s1.7-.6,2.5-.8l.7-4.1c0-.5.3-.9.6-1.3s.7-.6,1.2-.7,1,0,1.4.2.7.5.9.9l2,3.8c.4,0,.9,0,1.3,0s.9,0,1.3,0,.9,0,1.3,0,.9,0,1.3,0l2-3.8c.2-.4.5-.7.9-.9s.9-.3,1.4-.2.9.3,1.2.7.5.8.6,1.3l.7,4.2c.8.2,1.7.5,2.5.8s1.6.6,2.4.9l3.1-2.7c.4-.3.8-.5,1.3-.6s.9,0,1.4.3c.4.2.7.5.9,1s.2.9.1,1.4l-.8,4.1c.7.5,1.4,1,2,1.6s1.3,1.1,1.9,1.7l3.9-1.5c.5-.2,1-.2,1.4-.1s.9.4,1.2.8c.3.4.5.8.5,1.2s0,.9-.3,1.3l-2.2,3.6c.9,1.4,1.8,3,2.6,4.6h4.2c.5-.1,1,0,1.4.2s.7.6.8,1.1c.2.5.2.9,0,1.3s-.4.8-.8,1.1l-3.3,2.6c.1.6.3,1.1.4,1.6s.2,1.1.3,1.6c-.6,0-1.4,0-2.6,0s-2.3.2-3.6.5c-.6-3.4-1.6-6.6-3.3-9.5s-3.7-5.5-6.2-7.6-5.3-3.9-8.5-5.1-6.5-1.8-10.1-1.8-7.7.7-11.2,2.2-6.5,3.6-9,6.2-4.6,5.7-6,9.2-2.2,7.2-2.2,11.2.7,7.8,2.2,11.2,3.5,6.5,6,9.2,5.6,4.7,9,6.2,7.2,2.2,11.2,2.2,3.8-.2,5.7-.6,3.6-.9,5.3-1.6c.3.9.7,1.8,1.2,2.7s1,1.7,1.6,2.5c-.8.3-1.5.6-2.2.9s-1.4.5-2.2.7l-.7,4.2c0,.5-.3.9-.6,1.3s-.7.6-1.2.7c-.5,0-1,0-1.4-.2s-.7-.5-.9-1l-2-3.8c-.4,0-.9,0-1.3,0s-.9,0-1.3,0h0ZM52,68.9l-12.5,20.7-4.4-2.6,12.7-20.8,4.2,2.8h0ZM47.7,55l-12.3-21,4.5-2.5,12.1,20.8-4.3,2.7h0ZM53.9,70c-1.8,0-3.4-.4-4.8-1.3s-2.6-2-3.4-3.4-1.3-3-1.3-4.8.4-3.4,1.3-4.8,2-2.6,3.4-3.4,3-1.3,4.8-1.3,3.3.4,4.8,1.3,2.6,2,3.4,3.4,1.3,3,1.3,4.8-.4,3.3-1.3,4.8-2,2.6-3.4,3.4-3,1.3-4.8,1.3ZM53.9,64.6c1.1,0,2.1-.4,2.9-1.1s1.2-1.7,1.2-2.9-.4-2.1-1.2-2.9-1.7-1.2-2.9-1.2-2.1.4-2.9,1.2-1.2,1.8-1.2,2.9.4,2.1,1.2,2.9,1.7,1.1,2.9,1.1ZM62.1,63v-5h13.4c-1.2.6-2.3,1.4-3.3,2.2s-2,1.8-2.9,2.8c0,0-7.2,0-7.2,0ZM87.9,97.3c-2.5,0-4.9-.5-7.1-1.4s-4.2-2.3-5.9-4-3-3.6-4-5.9-1.4-4.6-1.4-7.1.5-4.9,1.4-7.1,2.3-4.2,4-5.9,3.6-3,5.9-4,4.6-1.4,7.1-1.4,4.9.5,7.1,1.4,4.2,2.3,5.9,4,3,3.6,4,5.9,1.4,4.6,1.4,7.1-.5,4.9-1.4,7.1-2.3,4.2-4,5.9-3.7,3-5.9,4-4.6,1.4-7.1,1.4ZM82.7,87.4l5.3-5.3,4.9,4.9c.4.4,1,.6,1.6.6s1.1-.2,1.6-.6c.4-.4.6-.9.6-1.5s-.2-1.1-.6-1.6l-4.9-4.9,5.3-5.3c.5-.5.7-1,.7-1.6s-.3-1.2-.8-1.6c-.4-.4-1-.7-1.6-.7s-1.2.2-1.6.6l-5.3,5.3-4.9-4.9c-.4-.4-1-.6-1.5-.6s-1.1.2-1.5.6-.7.9-.7,1.5.2,1.1.7,1.6l4.9,4.9-5.3,5.3c-.5.5-.7,1-.7,1.7s.3,1.2.8,1.6c.4.5,1,.7,1.6.8s1.2-.2,1.6-.7h0Z"/>
</svg>