<?xml version="1.0" encoding="UTF-8"?>
<svg id="Layer_1" data-name="Layer 1" xmlns="http://www.w3.org/2000/svg" version="1.1" viewBox="0 0 120 120">
  <defs>
    <style>
      .cls-1, .cls-2 {
        fill: #000;
        stroke-width: 0px;
      }

      .cls-2 {
        fill-opacity: 0;
      }
    </style>
  </defs>
  <rect class="cls-2" x="12.1" y="17.8" width="95.8" height="88.3"/>
  <path class="cls-1" d="M65.6,30.8c2.1,2.6,3.5,6.2,3.8,11.2-10.9.5-18.8,3.7-23.4,9.4-5.1,5.7-7.8,13.5-7.8,21.7s1.7,12.7,4.9,18c-.1,0-.3,0-.4,0-17,0-26.9-5.3-26.9-21.5v-25.4c0-6.3,1.5-10.5,3.9-13.5.8-1,2.1-1.1,3.1-.3,3.2,2.8,11.5,5.2,19.9,5.2s16.7-2.4,19.9-5.2c1-.8,2.3-.8,3.1.3Z"/>
  <path class="cls-1" d="M58.1,26.9c0,2.4-6.9,4.3-15.4,4.3s-15.4-1.9-15.4-4.3,6.9-4.3,15.4-4.3,15.4,1.8,15.4,4.3Z"/>
  <path class="cls-1" d="M73,101.1c11,0,15.7-1.4,20.1-5.5,6.2-5.6,9.8-13.8,9.8-22.5s-2.5-13.8-7.2-19.3c-1.1-1.4-2.3-1.5-3.5-.6-4.5,3.4-9.4,5.2-19.2,5.2s-14.7-1.8-19.2-5.2c-1.2-.9-2.4-.8-3.5.6-4.7,5.4-7.2,12.1-7.2,19.3s3.6,16.8,9.8,22.5c4.4,4.1,9.1,5.5,20.1,5.5Z"/>
  <path class="cls-1" d="M73,54.2c8.3,0,14.3-1.7,14.3-3.9s-5.9-3.9-14.3-3.9-14.3,1.7-14.3,3.9,5.9,3.9,14.3,3.9Z"/>
</svg>