<svg height="56" viewBox="0 0 48 56" width="48" xmlns="http://www.w3.org/2000/svg"><path d="m0 0h48v56h-48z" fill="none"/><path d="m41.3381 26.3658c.1516-8.3041-5.7417-14.3658-13.2832-14.3658-5.1539 0-8.7163 2.8124-10.8385 6.2137-.7322-.2518-1.4774-.3707-2.213-.3707-3.8143.0002-7.3622 3.1949-7.3934 7.5917-4.1686.5131-6.86 4.1615-6.86 8.7031 0 5.4156 4.6805 9.8431 10.9143 9.8431l25.7511.019c5.533 0 9.8346-3.9525 9.8346-8.9691 0-3.8575-2.1608-7.2589-5.9119-8.665zm-8.8383 3.9105c0 4.1357-3.3643 7.5-7.5 7.5s-7.5-3.3643-7.5-7.5c0-.5527.4478-1 1-1s1 .4473 1 1c0 3.0322 2.4673 5.5 5.5 5.5s5.5-2.4678 5.5-5.5-2.4673-5.5-5.5-5.5c-.1661 0-.3271.0302-.4908.0447l2.1124 2.1125c.3906.3906.3906 1.0234 0 1.4141-.1953.1953-.4512.293-.707.293s-.5117-.0977-.707-.293l-3.5-3.5c-.3906-.3906-.3906-1.0234 0-1.4141l3.5-3.5c.3906-.3906 1.0234-.3906 1.4141 0s.3906 1.0234 0 1.4141l-1.438 1.438c4.0504.0988 7.3164 3.417 7.3164 7.4907z" fill="#06c"/></svg>